STARTFONT 2.1
COMMENT
COMMENT Converted from OpenType font "Q:\font stuff\winfont\Continuum Medium.ttf" by "otf2bdf 3.0".
COMMENT
FONT -FreeType-Continuum Medium-Medium-R-Normal--33-330-72-72-P-145-ISO10646-1
SIZE 33 72 72
FONTBOUNDINGBOX 38 41 -5 -8
STARTPROPERTIES 19
FOUNDRY "FreeType"
FAMILY_NAME "Continuum Medium"
WEIGHT_NAME "Medium"
SLANT "R"
SETWIDTH_NAME "Normal"
ADD_STYLE_NAME ""
PIXEL_SIZE 24
POINT_SIZE 330
RESOLUTION_X 72
RESOLUTION_Y 72
SPACING "P"
AVERAGE_WIDTH 145
CHARSET_REGISTRY "ISO10646"
CHARSET_ENCODING "1"
FONT_ASCENT 33
FONT_DESCENT 6
COPYRIGHT "Copyright © 1996, 1997 Brøderbund Software. All rights reserved."
_OTF_FONTFILE "Q:\font stuff\winfont\Continuum Medium.ttf"
_OTF_PSNAME "ContinuumMedium"
ENDPROPERTIES
CHARS 246
STARTCHAR 0020
ENCODING 32
SWIDTH 272 0
DWIDTH 9 0
BBX 0 0 0 0
BITMAP
ENDCHAR
STARTCHAR 0021
ENCODING 33
SWIDTH 242 0
DWIDTH 8 0
BBX 4 23 2 0
BITMAP
F0
F0
F0
F0
F0
F0
F0
F0
F0
F0
F0
F0
F0
F0
F0
F0
F0
F0
00
00
70
70
70
ENDCHAR
STARTCHAR 0022
ENCODING 34
SWIDTH 303 0
DWIDTH 10 0
BBX 6 7 2 17
BITMAP
FC
FC
FC
FC
FC
FC
FC
ENDCHAR
STARTCHAR 0023
ENCODING 35
SWIDTH 606 0
DWIDTH 20 0
BBX 18 23 1 0
BITMAP
01C600
018600
018600
038E00
038E00
030C00
030C00
3FFFC0
3FFFC0
7FFF80
061800
061800
0E3800
FFFF00
FFFF00
FFFF00
1C3000
1C7000
1C7000
186000
186000
38E000
38E000
ENDCHAR
STARTCHAR 0024
ENCODING 36
SWIDTH 545 0
DWIDTH 18 0
BBX 15 27 1 -3
BITMAP
0100
1FFE
3FFE
7FFE
7100
E100
E100
E100
E100
F100
7100
7FF8
3FFC
1FFE
011E
010E
010E
010E
010E
010E
011E
FFFE
FFFC
FFF0
0100
0100
0100
ENDCHAR
STARTCHAR 0025
ENCODING 37
SWIDTH 727 0
DWIDTH 24 0
BBX 21 23 1 1
BITMAP
3F81E0
7FC1C0
FFC3C0
E1C380
E1C700
E1CF00
E1CE00
FFDE00
FFDC00
7FBC00
003800
007800
007000
00E7F0
01EFF8
01DFF8
03DC38
039C38
079C38
071C38
0E1FF8
0E0FF8
1C07F0
ENDCHAR
STARTCHAR 0026
ENCODING 38
SWIDTH 696 0
DWIDTH 23 0
BBX 21 23 1 0
BITMAP
07F800
0FFC00
1FFE00
3C0E00
380E00
380E00
3C0E00
1C3E00
1E7E00
0FFC00
0FF000
1FC1C0
3FE1C0
7DF1C0
70F9C0
F07DC0
E03FC0
E01FC0
E00FC0
7007C0
7FFFE0
3FFFF0
0FFCF8
ENDCHAR
STARTCHAR 0027
ENCODING 39
SWIDTH 181 0
DWIDTH 6 0
BBX 3 7 2 16
BITMAP
E0
E0
E0
E0
E0
E0
E0
ENDCHAR
STARTCHAR 0028
ENCODING 40
SWIDTH 272 0
DWIDTH 9 0
BBX 5 29 2 -3
BITMAP
78
70
F0
E0
E0
E0
E0
E0
E0
E0
E0
E0
E0
E0
E0
E0
E0
E0
E0
E0
E0
E0
E0
E0
E0
E0
F0
70
78
ENDCHAR
STARTCHAR 0029
ENCODING 41
SWIDTH 303 0
DWIDTH 10 0
BBX 5 29 2 -3
BITMAP
F0
70
38
38
38
38
38
38
38
38
38
38
38
38
38
38
38
38
38
38
38
38
38
38
38
38
78
70
F0
ENDCHAR
STARTCHAR 002A
ENCODING 42
SWIDTH 393 0
DWIDTH 13 0
BBX 10 10 1 13
BITMAP
0E00
4C00
64C0
F5C0
1F00
0A00
F5C0
64C0
4C00
0E00
ENDCHAR
STARTCHAR 002B
ENCODING 43
SWIDTH 636 0
DWIDTH 21 0
BBX 17 17 2 3
BITMAP
01C000
01C000
01C000
01C000
01C000
01C000
01C000
FFFF80
FFFF80
FFFF80
01C000
01C000
01C000
01C000
01C000
01C000
01C000
ENDCHAR
STARTCHAR 002C
ENCODING 44
SWIDTH 181 0
DWIDTH 6 0
BBX 4 7 1 -3
BITMAP
60
F0
F0
60
60
60
C0
ENDCHAR
STARTCHAR 002D
ENCODING 45
SWIDTH 333 0
DWIDTH 11 0
BBX 8 4 1 7
BITMAP
FF
FF
FF
F0
ENDCHAR
STARTCHAR 002E
ENCODING 46
SWIDTH 181 0
DWIDTH 6 0
BBX 3 4 2 0
BITMAP
C0
E0
E0
C0
ENDCHAR
STARTCHAR 002F
ENCODING 47
SWIDTH 575 0
DWIDTH 19 0
BBX 16 23 1 0
BITMAP
0007
000F
000E
001E
001C
0038
0078
0070
00F0
00E0
01E0
01C0
0380
0780
0700
0F00
0E00
1E00
1C00
3C00
3800
7000
F000
ENDCHAR
STARTCHAR 0030
ENCODING 48
SWIDTH 636 0
DWIDTH 21 0
BBX 17 23 2 0
BITMAP
0FFC00
3FFE00
7FFF00
780780
E00380
E00380
E00380
E00380
E00380
E00380
E00380
E00380
E00380
E00380
E00380
E00380
E00380
E00380
E00380
700780
7FFF00
3FFE00
0FFC00
ENDCHAR
STARTCHAR 0031
ENCODING 49
SWIDTH 636 0
DWIDTH 21 0
BBX 3 23 9 0
BITMAP
E0
E0
E0
E0
E0
E0
E0
E0
E0
E0
E0
E0
E0
E0
E0
E0
E0
E0
E0
E0
E0
E0
E0
ENDCHAR
STARTCHAR 0032
ENCODING 50
SWIDTH 636 0
DWIDTH 21 0
BBX 15 23 3 0
BITMAP
FFF0
FFFC
FFFC
001E
000E
000E
000E
000E
000E
000E
001E
1FFC
7FF8
7FF0
F000
E000
E000
E000
E000
E000
FFFE
FFFE
FFFE
ENDCHAR
STARTCHAR 0033
ENCODING 51
SWIDTH 636 0
DWIDTH 21 0
BBX 15 23 3 0
BITMAP
FFF0
FFF8
FFFC
001C
000E
000E
000E
000E
000E
001C
07FC
07F0
07FC
001C
001E
000E
000E
000E
000E
001C
FFFC
FFF8
FFF0
ENDCHAR
STARTCHAR 0034
ENCODING 52
SWIDTH 666 0
DWIDTH 22 0
BBX 15 23 3 0
BITMAP
01EE
01CE
03CE
038E
078E
0F0E
0E0E
1E0E
3C0E
380E
780E
700E
F00E
FFFE
FFFE
7FFE
000E
000E
000E
000E
000E
000E
000E
ENDCHAR
STARTCHAR 0035
ENCODING 53
SWIDTH 636 0
DWIDTH 21 0
BBX 15 23 3 0
BITMAP
FFFE
FFFE
FFFE
E000
E000
E000
E000
E000
FFF0
FFF8
FFFC
001E
000E
000E
000E
000E
000E
000E
000E
001E
FFFC
FFF8
FFF0
ENDCHAR
STARTCHAR 0036
ENCODING 54
SWIDTH 636 0
DWIDTH 21 0
BBX 17 23 2 0
BITMAP
1FFF80
7FFF80
7FFF80
F00000
E00000
E00000
E00000
E00000
FFFC00
FFFF00
FFFF00
F00780
E00380
E00380
E00380
E00380
E00380
E00380
E00380
F00780
7FFF00
3FFE00
1FFC00
ENDCHAR
STARTCHAR 0037
ENCODING 55
SWIDTH 636 0
DWIDTH 21 0
BBX 15 23 3 0
BITMAP
FFFC
FFFE
FFFE
000E
001C
001C
003C
0038
0078
0070
0070
00E0
00E0
01E0
01C0
03C0
0380
0380
0700
0700
0F00
0E00
1E00
ENDCHAR
STARTCHAR 0038
ENCODING 56
SWIDTH 636 0
DWIDTH 21 0
BBX 17 23 2 0
BITMAP
1FFC00
3FFF00
7FFF00
F00780
E00380
E00380
E00380
E00380
E00380
F00780
7FFF00
3FFE00
7FFF00
F00780
E00380
E00380
E00380
E00380
E00380
F00780
7FFF00
3FFE00
1FFC00
ENDCHAR
STARTCHAR 0039
ENCODING 57
SWIDTH 636 0
DWIDTH 21 0
BBX 17 23 2 0
BITMAP
1FFC00
3FFE00
7FFF00
F00780
E00380
E00380
E00380
E00380
E00380
E00380
E00380
F00780
7FFF80
7FFF80
1FFF80
000380
000380
000380
000380
000780
FFFF00
FFFF00
FFFC00
ENDCHAR
STARTCHAR 003A
ENCODING 58
SWIDTH 212 0
DWIDTH 7 0
BBX 4 14 1 0
BITMAP
70
F0
70
00
00
00
00
00
00
00
30
70
70
30
ENDCHAR
STARTCHAR 003B
ENCODING 59
SWIDTH 212 0
DWIDTH 7 0
BBX 4 17 1 -3
BITMAP
70
F0
F0
70
00
00
00
00
00
00
70
F0
F0
70
70
60
60
ENDCHAR
STARTCHAR 003C
ENCODING 60
SWIDTH 515 0
DWIDTH 17 0
BBX 16 13 0 5
BITMAP
0006
001E
00FF
07FC
3FE0
FF80
FC00
FF80
1FE0
07FC
00FF
001E
0006
ENDCHAR
STARTCHAR 003D
ENCODING 61
SWIDTH 636 0
DWIDTH 21 0
BBX 17 9 2 7
BITMAP
FFFF80
FFFF80
FFFF80
000000
000000
000000
FFFF80
FFFF80
FFFF80
ENDCHAR
STARTCHAR 003E
ENCODING 62
SWIDTH 484 0
DWIDTH 16 0
BBX 16 13 0 5
BITMAP
4000
F800
FF00
3FE0
07F8
01FF
003F
01FF
07F8
3FE0
FF00
7800
4000
ENDCHAR
STARTCHAR 003F
ENCODING 63
SWIDTH 515 0
DWIDTH 17 0
BBX 14 23 1 0
BITMAP
FFF0
FFF8
FFFC
003C
001C
001C
001C
001C
001C
0FFC
1FFC
1FF8
1FE0
1C00
1C00
1C00
1C00
1C00
0000
0000
1800
1C00
1800
ENDCHAR
STARTCHAR 0040
ENCODING 64
SWIDTH 727 0
DWIDTH 24 0
BBX 21 23 1 0
BITMAP
0FFF80
3FFFE0
7FFFF0
7800F0
700078
E00038
E7FC38
E7FF38
E7FF38
E1FF38
E3FF38
E7FF38
E70738
E70738
E70770
E7FFF0
E3FFE0
E1FFB8
700038
780078
3FFFF0
3FFFE0
0FFF80
ENDCHAR
STARTCHAR 0041
ENCODING 65
SWIDTH 606 0
DWIDTH 20 0
BBX 20 23 0 0
BITMAP
00E000
00F000
01F800
01F800
03FC00
039C00
039C00
078E00
070E00
070E00
0F0700
0E0700
0E0700
1C0380
1C0380
3FFFC0
3FFFC0
3FFFC0
7800E0
7000E0
7000E0
E00070
E00070
ENDCHAR
STARTCHAR 0042
ENCODING 66
SWIDTH 606 0
DWIDTH 20 0
BBX 17 23 2 0
BITMAP
FFFC00
FFFF00
FFFF00
E00780
E00380
E00380
E00380
E00380
E00380
E00780
FFFF00
FFFE00
FFFF00
E00780
E00380
E00380
E00380
E00380
E00380
E00780
FFFF00
FFFF00
FFFC00
ENDCHAR
STARTCHAR 0043
ENCODING 67
SWIDTH 545 0
DWIDTH 18 0
BBX 15 23 2 0
BITMAP
1FFE
3FFE
7FFE
F000
E000
E000
E000
E000
E000
E000
E000
E000
E000
E000
E000
E000
E000
E000
E000
F000
7FFE
3FFE
1FFE
ENDCHAR
STARTCHAR 0044
ENCODING 68
SWIDTH 636 0
DWIDTH 21 0
BBX 17 23 2 0
BITMAP
FFFC00
FFFF00
FFFF00
E00780
E00380
E00380
E00380
E00380
E00380
E00380
E00380
E00380
E00380
E00380
E00380
E00380
E00380
E00380
E00380
E00780
FFFF00
FFFE00
FFFC00
ENDCHAR
STARTCHAR 0045
ENCODING 69
SWIDTH 575 0
DWIDTH 19 0
BBX 15 23 2 0
BITMAP
1FFE
3FFE
7FFE
F000
E000
E000
E000
E000
E000
E000
FFFE
FFFE
FFFE
E000
E000
E000
E000
E000
E000
F000
7FFE
3FFE
1FFE
ENDCHAR
STARTCHAR 0046
ENCODING 70
SWIDTH 545 0
DWIDTH 18 0
BBX 15 23 2 0
BITMAP
1FFE
7FFE
7FFE
F000
E000
E000
E000
E000
E000
E000
FFFE
FFFE
FFFE
E000
E000
E000
E000
E000
E000
E000
E000
E000
E000
ENDCHAR
STARTCHAR 0047
ENCODING 71
SWIDTH 636 0
DWIDTH 21 0
BBX 17 23 2 0
BITMAP
1FFE00
3FFE00
7FFE00
F00000
E00000
E00000
E00000
E00000
E00000
E00000
E00380
E00380
E00380
E00380
E00380
E00380
E00380
E00380
E00380
F00780
7FFF00
3FFE00
1FFC00
ENDCHAR
STARTCHAR 0048
ENCODING 72
SWIDTH 636 0
DWIDTH 21 0
BBX 17 23 2 0
BITMAP
E00380
E00380
E00380
E00380
E00380
E00380
E00380
E00380
E00380
E00380
FFFF80
FFFF80
FFFF80
E00380
E00380
E00380
E00380
E00380
E00380
E00380
E00380
E00380
E00380
ENDCHAR
STARTCHAR 0049
ENCODING 73
SWIDTH 212 0
DWIDTH 7 0
BBX 3 23 2 0
BITMAP
E0
E0
E0
E0
E0
E0
E0
E0
E0
E0
E0
E0
E0
E0
E0
E0
E0
E0
E0
E0
E0
E0
E0
ENDCHAR
STARTCHAR 004A
ENCODING 74
SWIDTH 303 0
DWIDTH 10 0
BBX 7 23 1 0
BITMAP
0E
0E
0E
0E
0E
0E
0E
0E
0E
0E
0E
0E
0E
0E
0E
0E
0E
0E
0E
1E
FC
F8
F0
ENDCHAR
STARTCHAR 004B
ENCODING 75
SWIDTH 575 0
DWIDTH 19 0
BBX 17 23 2 0
BITMAP
E00E00
E01C00
E03C00
E07800
E0F000
E0E000
E1C000
E3C000
E78000
EF0000
EE0000
EF0000
EF0000
E78000
E3C000
E3E000
E1F000
E0F000
E07800
E03C00
E01E00
E01F00
E00F80
ENDCHAR
STARTCHAR 004C
ENCODING 76
SWIDTH 515 0
DWIDTH 17 0
BBX 15 23 2 0
BITMAP
E000
E000
E000
E000
E000
E000
E000
E000
E000
E000
E000
E000
E000
E000
E000
E000
E000
E000
E000
F000
7FFE
3FFE
1FFE
ENDCHAR
STARTCHAR 004D
ENCODING 77
SWIDTH 818 0
DWIDTH 27 0
BBX 23 23 2 0
BITMAP
78003C
FC007E
FC007E
FC007E
FE00FE
EE00EE
EE00EE
EF00EE
E701CE
E701CE
E701CE
E3838E
E3838E
E3838E
E1C78E
E1C70E
E1C70E
E0EF0E
E0EE0E
E0EE0E
E07E0E
E07C0E
E0380E
ENDCHAR
STARTCHAR 004E
ENCODING 78
SWIDTH 606 0
DWIDTH 20 0
BBX 16 23 2 -1
BITMAP
7007
F807
F807
FC07
FC07
EE07
EE07
EF07
E707
E787
E387
E387
E1C7
E1C7
E0E7
E0E7
E0F7
E077
E07F
E03F
E03F
E01F
E00E
ENDCHAR
STARTCHAR 004F
ENCODING 79
SWIDTH 636 0
DWIDTH 21 0
BBX 17 23 2 0
BITMAP
0FF800
3FFE00
7FFF00
F00780
E00380
E00380
E00380
E00380
E00380
E00380
E00380
E00380
E00380
E00380
E00380
E00380
E00380
E00380
E00380
700780
7FFF00
3FFE00
0FF800
ENDCHAR
STARTCHAR 0050
ENCODING 80
SWIDTH 575 0
DWIDTH 19 0
BBX 17 23 2 0
BITMAP
FFFC00
FFFE00
FFFF00
E00780
E00380
E00380
E00380
E00380
E00380
E00380
E00380
E00780
FFFF00
FFFE00
FFF800
E00000
E00000
E00000
E00000
E00000
E00000
E00000
E00000
ENDCHAR
STARTCHAR 0051
ENCODING 81
SWIDTH 636 0
DWIDTH 21 0
BBX 17 26 2 -3
BITMAP
1FFC00
7FFF00
7FFF00
F00780
E00380
E00380
E00380
E00380
E00380
E00380
E00380
E00380
E00380
E00380
E00380
E00380
E00380
E00380
E00380
F00780
7FFF00
3FFE00
1FF800
007C00
001E00
000F00
ENDCHAR
STARTCHAR 0052
ENCODING 82
SWIDTH 606 0
DWIDTH 20 0
BBX 17 23 2 0
BITMAP
FFFC00
FFFF00
FFFF00
E00780
E00380
E00380
E00380
E00380
E00380
E00780
EFFF00
EFFF00
EFFC00
EF0000
E78000
E3C000
E1E000
E0F000
E0F000
E07800
E03C00
E01E00
E00F00
ENDCHAR
STARTCHAR 0053
ENCODING 83
SWIDTH 545 0
DWIDTH 18 0
BBX 15 23 1 0
BITMAP
1FFE
3FFE
7FFE
7000
E000
E000
E000
E000
E000
7000
7FF0
3FFC
1FFE
000E
000E
000E
000E
000E
000E
000E
FFFE
FFFC
FFF0
ENDCHAR
STARTCHAR 0054
ENCODING 84
SWIDTH 424 0
DWIDTH 14 0
BBX 13 23 0 0
BITMAP
FFF8
FFF8
FFF8
0700
0700
0700
0700
0700
0700
0700
0700
0700
0700
0700
0700
0700
0700
0700
0700
0700
0700
0700
0700
ENDCHAR
STARTCHAR 0055
ENCODING 85
SWIDTH 636 0
DWIDTH 21 0
BBX 16 23 2 0
BITMAP
E007
E007
E007
E007
E007
E007
E007
E007
E007
E007
E007
E007
E007
E007
E007
E007
E007
E007
E007
F00F
7FFE
3FFC
1FF8
ENDCHAR
STARTCHAR 0056
ENCODING 86
SWIDTH 606 0
DWIDTH 20 0
BBX 20 23 0 0
BITMAP
E00070
E000F0
7000E0
7000E0
7801E0
3801C0
3801C0
3C0380
1C0380
1C0780
0E0700
0E0700
0E0F00
070E00
070E00
079E00
039C00
039C00
03F800
01F800
01F800
00F000
00F000
ENDCHAR
STARTCHAR 0057
ENCODING 87
SWIDTH 818 0
DWIDTH 27 0
BBX 27 23 0 0
BITMAP
E00E00E0
701F00E0
701F01C0
701F01C0
703F81C0
383B81C0
383B83C0
383B8380
38398380
3879C380
1C71C380
1C71C700
1C71C700
1C70E700
0EF0E700
0EE0EF00
0EE0EE00
0EE0EE00
0FE07E00
07E07E00
07C07C00
07C07C00
03803800
ENDCHAR
STARTCHAR 0058
ENCODING 88
SWIDTH 636 0
DWIDTH 21 0
BBX 21 23 0 0
BITMAP
7800F0
3C01E0
1C01C0
0E03C0
0F0780
078F00
038E00
03DE00
01FC00
00F800
007000
00F800
01FC00
01DC00
03DE00
078F00
0F0780
0E0380
1E03C0
3C01E0
7800F0
700070
F00078
ENDCHAR
STARTCHAR 0059
ENCODING 89
SWIDTH 575 0
DWIDTH 19 0
BBX 19 23 0 0
BITMAP
E001E0
F001C0
7003C0
380780
3C0700
1C0F00
1E1E00
0F1C00
073C00
07F800
03F000
03F000
01E000
01C000
01C000
01C000
01C000
01C000
01C000
01C000
01C000
01C000
01C000
ENDCHAR
STARTCHAR 005A
ENCODING 90
SWIDTH 515 0
DWIDTH 17 0
BBX 15 23 1 0
BITMAP
FFFC
FFFE
FFFE
001E
003C
0038
0078
00F0
01E0
01C0
03C0
0780
0700
0F00
1E00
1C00
3C00
7800
F000
E000
FFFE
FFFE
7FFE
ENDCHAR
STARTCHAR 005B
ENCODING 91
SWIDTH 272 0
DWIDTH 9 0
BBX 6 28 2 -3
BITMAP
FC
FC
FC
E0
E0
E0
E0
E0
E0
E0
E0
E0
E0
E0
E0
E0
E0
E0
E0
E0
E0
E0
E0
E0
E0
FC
FC
FC
ENDCHAR
STARTCHAR 005C
ENCODING 92
SWIDTH 606 0
DWIDTH 20 0
BBX 16 23 2 0
BITMAP
E000
F000
7000
7800
3C00
1C00
1E00
0E00
0F00
0700
0380
03C0
01C0
01E0
00E0
00F0
0078
0038
003C
001C
001E
000E
0007
ENDCHAR
STARTCHAR 005D
ENCODING 93
SWIDTH 272 0
DWIDTH 9 0
BBX 6 28 1 -3
BITMAP
FC
FC
FC
1C
1C
1C
1C
1C
1C
1C
1C
1C
1C
1C
1C
1C
1C
1C
1C
1C
1C
1C
1C
1C
1C
FC
FC
FC
ENDCHAR
STARTCHAR 005E
ENCODING 94
SWIDTH 454 0
DWIDTH 15 0
BBX 16 14 0 9
BITMAP
0380
03C0
07C0
06E0
0E60
0C70
1C30
1838
3818
301C
700C
600E
E006
C007
ENDCHAR
STARTCHAR 005F
ENCODING 95
SWIDTH 545 0
DWIDTH 18 0
BBX 18 2 0 -4
BITMAP
FFFFC0
FFFFC0
ENDCHAR
STARTCHAR 0060
ENCODING 96
SWIDTH 363 0
DWIDTH 12 0
BBX 5 4 2 20
BITMAP
E0
70
30
18
ENDCHAR
STARTCHAR 0061
ENCODING 97
SWIDTH 545 0
DWIDTH 18 0
BBX 14 17 2 0
BITMAP
FFF0
FFF8
FFFC
001C
001C
3FFC
7FFC
FFFC
F03C
E01C
E01C
E01C
E01C
E01C
FFFC
7FF8
3FF0
ENDCHAR
STARTCHAR 0062
ENCODING 98
SWIDTH 545 0
DWIDTH 18 0
BBX 14 23 2 0
BITMAP
E000
E000
E000
E000
E000
E000
FFF0
FFF8
FFFC
E01C
E01C
E01C
E01C
E01C
E01C
E01C
E01C
E01C
E01C
F01C
7FFC
7FF8
3FF0
ENDCHAR
STARTCHAR 0063
ENCODING 99
SWIDTH 454 0
DWIDTH 15 0
BBX 11 17 2 0
BITMAP
3FE0
7FE0
FFE0
E000
E000
E000
E000
E000
E000
E000
E000
E000
E000
F000
FFE0
7FE0
1FE0
ENDCHAR
STARTCHAR 0064
ENCODING 100
SWIDTH 545 0
DWIDTH 18 0
BBX 14 23 2 0
BITMAP
001C
001C
001C
001C
001C
001C
3FFC
7FFC
FFFC
E01C
E01C
E01C
E01C
E01C
E01C
E01C
E01C
E01C
E01C
E03C
FFF8
7FF8
3FF0
ENDCHAR
STARTCHAR 0065
ENCODING 101
SWIDTH 545 0
DWIDTH 18 0
BBX 14 17 2 0
BITMAP
1FF0
7FF8
FFFC
F01C
E01C
E07C
E1FC
E7F0
FFC0
FE00
F800
E000
E000
E000
FFFC
7FFC
3FFC
ENDCHAR
STARTCHAR 0066
ENCODING 102
SWIDTH 242 0
DWIDTH 8 0
BBX 6 23 2 0
BITMAP
3C
7C
FC
F0
E0
E0
FC
FC
FC
E0
E0
E0
E0
E0
E0
E0
E0
E0
E0
E0
E0
E0
E0
ENDCHAR
STARTCHAR 0067
ENCODING 103
SWIDTH 545 0
DWIDTH 18 0
BBX 14 23 2 -6
BITMAP
3FF0
7FF8
FFFC
F01C
E01C
E01C
E01C
E01C
E01C
E01C
E01C
E01C
E01C
F01C
FFFC
7FFC
3FFC
001C
001C
003C
FFFC
FFF8
FFF0
ENDCHAR
STARTCHAR 0068
ENCODING 104
SWIDTH 545 0
DWIDTH 18 0
BBX 14 23 2 0
BITMAP
E000
E000
E000
E000
E000
E000
FFF0
FFF8
FFFC
E01C
E01C
E01C
E01C
E01C
E01C
E01C
E01C
E01C
E01C
E01C
E01C
E01C
E01C
ENDCHAR
STARTCHAR 0069
ENCODING 105
SWIDTH 212 0
DWIDTH 7 0
BBX 3 23 2 0
BITMAP
60
E0
60
00
00
00
E0
E0
E0
E0
E0
E0
E0
E0
E0
E0
E0
E0
E0
E0
E0
E0
E0
ENDCHAR
STARTCHAR 006A
ENCODING 106
SWIDTH 242 0
DWIDTH 8 0
BBX 6 29 0 -6
BITMAP
1C
1C
1C
00
00
00
1C
1C
1C
1C
1C
1C
1C
1C
1C
1C
1C
1C
1C
1C
1C
1C
1C
1C
1C
3C
F8
F8
F0
ENDCHAR
STARTCHAR 006B
ENCODING 107
SWIDTH 515 0
DWIDTH 17 0
BBX 15 23 2 0
BITMAP
E000
E000
E000
E000
E000
E000
E03C
E078
E0F0
E1E0
E3C0
E780
EF00
FE00
FE00
EF00
E780
E3C0
E1E0
E0F0
E078
E07C
E03E
ENDCHAR
STARTCHAR 006C
ENCODING 108
SWIDTH 212 0
DWIDTH 7 0
BBX 3 23 2 0
BITMAP
E0
E0
E0
E0
E0
E0
E0
E0
E0
E0
E0
E0
E0
E0
E0
E0
E0
E0
E0
E0
E0
E0
E0
ENDCHAR
STARTCHAR 006D
ENCODING 109
SWIDTH 727 0
DWIDTH 24 0
BBX 20 17 2 0
BITMAP
3F9FC0
7FFFE0
FFFFF0
E0F070
E07070
E07070
E07070
E07070
E07070
E07070
E07070
E07070
E07070
E07070
E07070
E07070
E07070
ENDCHAR
STARTCHAR 006E
ENCODING 110
SWIDTH 545 0
DWIDTH 18 0
BBX 14 17 2 0
BITMAP
3FF0
7FF8
FFFC
E01C
E01C
E01C
E01C
E01C
E01C
E01C
E01C
E01C
E01C
E01C
E01C
E01C
E01C
ENDCHAR
STARTCHAR 006F
ENCODING 111
SWIDTH 575 0
DWIDTH 19 0
BBX 15 17 2 0
BITMAP
3FF8
7FFC
FFFE
F01E
E00E
E00E
E00E
E00E
E00E
E00E
E00E
E00E
E00E
F01E
FFFE
7FFC
3FF8
ENDCHAR
STARTCHAR 0070
ENCODING 112
SWIDTH 575 0
DWIDTH 19 0
BBX 15 23 2 -6
BITMAP
3FF8
7FFC
FFFE
E00E
E00E
E00E
E00E
E00E
E00E
E00E
E00E
E00E
E00E
F00E
FFFE
FFFC
FFF0
E000
E000
E000
E000
E000
E000
ENDCHAR
STARTCHAR 0071
ENCODING 113
SWIDTH 575 0
DWIDTH 19 0
BBX 15 23 2 -6
BITMAP
3FF8
7FFC
FFFE
E00E
E00E
E00E
E00E
E00E
E00E
E00E
E00E
E00E
E00E
E01E
7FFE
7FFE
1FFE
000E
000E
000E
000E
000E
000E
ENDCHAR
STARTCHAR 0072
ENCODING 114
SWIDTH 242 0
DWIDTH 8 0
BBX 6 17 2 0
BITMAP
3C
7C
FC
E0
E0
E0
E0
E0
E0
E0
E0
E0
E0
E0
E0
E0
E0
ENDCHAR
STARTCHAR 0073
ENCODING 115
SWIDTH 484 0
DWIDTH 16 0
BBX 13 17 1 0
BITMAP
3FF8
7FF8
7FF8
F000
E000
F000
7FE0
7FF0
3FF8
0038
0038
0038
0038
0038
FFF8
FFF8
FFE0
ENDCHAR
STARTCHAR 0074
ENCODING 116
SWIDTH 242 0
DWIDTH 8 0
BBX 6 23 2 0
BITMAP
E0
E0
E0
E0
E0
E0
FC
FC
FC
E0
E0
E0
E0
E0
E0
E0
E0
E0
E0
E0
E0
E0
E0
ENDCHAR
STARTCHAR 0075
ENCODING 117
SWIDTH 545 0
DWIDTH 18 0
BBX 14 17 2 0
BITMAP
E01C
E01C
E01C
E01C
E01C
E01C
E01C
E01C
E01C
E01C
E01C
E01C
E01C
E01C
FFFC
7FF8
3FF0
ENDCHAR
STARTCHAR 0076
ENCODING 118
SWIDTH 515 0
DWIDTH 17 0
BBX 16 17 0 0
BITMAP
E007
7007
700F
780E
380E
381E
3C1C
1C1C
1C38
0E38
0E78
0F70
0770
07F0
07E0
03E0
01C0
ENDCHAR
STARTCHAR 0077
ENCODING 119
SWIDTH 727 0
DWIDTH 24 0
BBX 24 17 0 0
BITMAP
F0380F
703C0E
707C0E
707E0E
707E1E
387E1C
38E71C
38E71C
38E73C
1DE738
1DC3B8
1DC3B8
1DC3F8
0FC3F0
0F81F0
0F81F0
0700E0
ENDCHAR
STARTCHAR 0078
ENCODING 120
SWIDTH 484 0
DWIDTH 16 0
BBX 15 17 1 0
BITMAP
E01C
703C
7878
3C70
1CF0
1FE0
0FC0
07C0
0780
0FC0
0FE0
1EE0
3CF0
3878
7838
F03C
E01E
ENDCHAR
STARTCHAR 0079
ENCODING 121
SWIDTH 545 0
DWIDTH 18 0
BBX 14 23 2 -6
BITMAP
E01C
E01C
E01C
E01C
E01C
E01C
E01C
E01C
E01C
E01C
E01C
E01C
E01C
F01C
FFFC
7FFC
3FFC
001C
001C
001C
FFFC
FFF8
FFF0
ENDCHAR
STARTCHAR 007A
ENCODING 122
SWIDTH 515 0
DWIDTH 17 0
BBX 15 17 1 0
BITMAP
7FFE
7FFE
7FFE
003E
007C
00F8
01F0
03E0
07C0
0F80
1F00
3E00
7C00
F800
FFFE
FFFE
7FFE
ENDCHAR
STARTCHAR 007B
ENCODING 123
SWIDTH 303 0
DWIDTH 10 0
BBX 7 31 2 -4
BITMAP
3E
38
38
38
38
38
38
38
38
38
38
38
38
70
70
C0
70
70
38
38
38
38
38
38
38
38
38
38
38
38
3E
ENDCHAR
STARTCHAR 007C
ENCODING 124
SWIDTH 212 0
DWIDTH 7 0
BBX 3 23 2 0
BITMAP
E0
E0
E0
E0
E0
E0
E0
E0
E0
E0
E0
E0
E0
E0
E0
E0
E0
E0
E0
E0
E0
E0
E0
ENDCHAR
STARTCHAR 007D
ENCODING 125
SWIDTH 303 0
DWIDTH 10 0
BBX 7 31 2 -4
BITMAP
F0
70
78
38
38
38
38
38
38
38
38
38
38
38
38
0E
38
38
38
38
38
38
38
38
38
38
38
38
78
70
F0
ENDCHAR
STARTCHAR 007E
ENCODING 126
SWIDTH 545 0
DWIDTH 18 0
BBX 16 6 1 5
BITMAP
1E00
3F06
7FCF
F3FE
60FC
0078
ENDCHAR
STARTCHAR 00A0
ENCODING 160
SWIDTH 272 0
DWIDTH 9 0
BBX 0 0 0 0
BITMAP
ENDCHAR
STARTCHAR 00A1
ENCODING 161
SWIDTH 242 0
DWIDTH 8 0
BBX 4 23 2 0
BITMAP
E0
E0
E0
00
00
F0
F0
F0
F0
F0
F0
F0
F0
F0
F0
F0
F0
F0
F0
F0
F0
F0
F0
ENDCHAR
STARTCHAR 00A2
ENCODING 162
SWIDTH 454 0
DWIDTH 15 0
BBX 11 22 2 -3
BITMAP
0100
0100
1FE0
7FE0
FFE0
F100
E100
E100
E100
E100
E100
E100
E100
E100
E100
F100
FFE0
7FE0
1FE0
0100
0100
0100
ENDCHAR
STARTCHAR 00A3
ENCODING 163
SWIDTH 606 0
DWIDTH 20 0
BBX 18 23 1 0
BITMAP
03F000
07F800
0FFC00
0F1C00
0E1C00
0E1C00
0E0000
0E0000
0E0000
0E0000
FFF800
FFF800
FFF800
0E0000
0E0000
0E0000
0E0000
0E01C0
1C01C0
3C03C0
FFFFC0
FFFF80
FFFE00
ENDCHAR
STARTCHAR 00A4
ENCODING 164
SWIDTH 545 0
DWIDTH 18 0
BBX 15 15 1 1
BITMAP
07C4
7FFE
7FFE
7C3C
701E
F00E
E00E
E00E
E00E
F00E
701E
7C3E
7FFE
FFFE
6FE4
ENDCHAR
STARTCHAR 00A5
ENCODING 165
SWIDTH 545 0
DWIDTH 18 0
BBX 18 23 0 0
BITMAP
F003C0
700780
780700
3C0F00
1C0E00
1E1E00
0F3C00
073800
3FFFC0
3FFFC0
3FFFC0
01E000
3FFFC0
3FFFC0
3FFFC0
00E000
00E000
00E000
00E000
00E000
00E000
00E000
00E000
ENDCHAR
STARTCHAR 00A6
ENCODING 166
SWIDTH 272 0
DWIDTH 9 0
BBX 3 25 3 -1
BITMAP
E0
E0
E0
E0
E0
E0
E0
E0
E0
00
00
00
00
00
00
E0
E0
E0
E0
E0
E0
E0
E0
E0
E0
ENDCHAR
STARTCHAR 00A7
ENCODING 167
SWIDTH 545 0
DWIDTH 18 0
BBX 16 29 1 -3
BITMAP
07E0
0FF8
1FFC
3C18
3800
3800
3800
3C00
1F00
3FC0
73F0
E0FC
E03E
E00F
F007
FC07
7F07
1FCE
07FC
01F8
007C
001E
000E
000E
301E
7C3C
7FFC
1FF8
07E0
ENDCHAR
STARTCHAR 00A8
ENCODING 168
SWIDTH 424 0
DWIDTH 14 0
BBX 10 3 3 18
BITMAP
C180
E1C0
C180
ENDCHAR
STARTCHAR 00A9
ENCODING 169
SWIDTH 787 0
DWIDTH 26 0
BBX 23 23 1 0
BITMAP
0FFFF0
3FFFF8
7FFFFC
78001E
F0000E
E0FF0E
E1FF0E
E3FF0E
E3C00E
E3800E
E3800E
E3800E
E3800E
E3800E
E3C00E
E3FF0E
E1FF0E
E0FF0E
F0000E
78001E
7FFFFC
3FFFF8
0FFFF0
ENDCHAR
STARTCHAR 00AA
ENCODING 170
SWIDTH 363 0
DWIDTH 12 0
BBX 10 14 1 10
BITMAP
3E00
7F00
C780
0380
0780
7B80
E380
E380
E780
FFC0
7CC0
0000
FFC0
FFC0
ENDCHAR
STARTCHAR 00AB
ENCODING 171
SWIDTH 545 0
DWIDTH 18 0
BBX 12 10 3 4
BITMAP
0810
3830
70E0
E180
C100
C180
F0E0
3870
1830
0010
ENDCHAR
STARTCHAR 00AC
ENCODING 172
SWIDTH 575 0
DWIDTH 19 0
BBX 17 9 1 4
BITMAP
FFFF80
FFFF80
FFFF80
000380
000380
000380
000380
000380
000380
ENDCHAR
STARTCHAR 00AD
ENCODING 173
SWIDTH 575 0
DWIDTH 19 0
BBX 17 3 1 7
BITMAP
FFFF80
FFFF80
FFFF80
ENDCHAR
STARTCHAR 00AE
ENCODING 174
SWIDTH 787 0
DWIDTH 26 0
BBX 23 23 1 0
BITMAP
0FFFF0
3FFFF8
7FFFFC
78001E
F0000E
E3FF0E
E3FF8E
E3FF8E
E3838E
E3838E
E3FF8E
E3FF8E
E3FF0E
E3F00E
E3B80E
E39C0E
E38F0E
E3838E
F0000E
78001E
7FFFFC
3FFFF8
0FFFF0
ENDCHAR
STARTCHAR 00AF
ENCODING 175
SWIDTH 454 0
DWIDTH 15 0
BBX 10 2 3 19
BITMAP
FFC0
FFC0
ENDCHAR
STARTCHAR 00B0
ENCODING 176
SWIDTH 393 0
DWIDTH 13 0
BBX 10 9 2 14
BITMAP
3E00
6380
C180
C0C0
C0C0
C0C0
C180
6380
3E00
ENDCHAR
STARTCHAR 00B1
ENCODING 177
SWIDTH 575 0
DWIDTH 19 0
BBX 17 17 1 0
BITMAP
01C000
01C000
01C000
01C000
01C000
01C000
FFFF80
FFFF80
FFFF80
01C000
01C000
01C000
01C000
01C000
FFFF80
FFFF80
FFFF80
ENDCHAR
STARTCHAR 00B4
ENCODING 180
SWIDTH 363 0
DWIDTH 12 0
BBX 5 5 4 18
BITMAP
18
38
70
C0
80
ENDCHAR
STARTCHAR 00B5
ENCODING 181
SWIDTH 484 0
DWIDTH 16 0
BBX 12 22 2 -8
BITMAP
E070
E070
E070
E070
E070
E070
E070
E070
E070
E070
E0F0
F0F0
FFE0
FFC0
EF80
E000
E000
E000
E000
E000
E000
E000
ENDCHAR
STARTCHAR 00B6
ENCODING 182
SWIDTH 545 0
DWIDTH 18 0
BBX 16 30 1 -6
BITMAP
0FFF
3FFF
7FFF
FFC7
FFC7
FFC7
FFC7
FFC7
FFC7
FFC7
7FC7
3FC7
03C7
01C7
01C7
01C7
01C7
01C7
01C7
01C7
01C7
01C7
01C7
01C7
01C7
01C7
01C7
01C7
01C7
01C7
ENDCHAR
STARTCHAR 00B7
ENCODING 183
SWIDTH 242 0
DWIDTH 8 0
BBX 3 3 3 7
BITMAP
C0
E0
E0
ENDCHAR
STARTCHAR 00B8
ENCODING 184
SWIDTH 393 0
DWIDTH 13 0
BBX 4 6 6 -6
BITMAP
20
70
60
C0
C0
80
ENDCHAR
STARTCHAR 00BA
ENCODING 186
SWIDTH 363 0
DWIDTH 12 0
BBX 10 14 1 10
BITMAP
3E00
7F80
F380
E1C0
E1C0
E1C0
E1C0
E1C0
F380
7F80
3E00
0000
FFC0
FFC0
ENDCHAR
STARTCHAR 00BB
ENCODING 187
SWIDTH 545 0
DWIDTH 18 0
BBX 12 11 3 3
BITMAP
0100
8180
61C0
30E0
1870
0830
1830
78F0
F1E0
C180
8100
ENDCHAR
STARTCHAR 00BF
ENCODING 191
SWIDTH 515 0
DWIDTH 17 0
BBX 14 23 1 0
BITMAP
0060
0070
0060
0000
0000
00E0
00E0
00E0
00E0
00E0
1FE0
7FE0
FFE0
FFC0
E000
E000
E000
E000
E000
F000
FFFC
7FFC
3FFC
ENDCHAR
STARTCHAR 00C0
ENCODING 192
SWIDTH 636 0
DWIDTH 21 0
BBX 20 33 0 0
BITMAP
030000
078000
038000
01C000
006000
000000
000000
000000
000000
000000
00E000
00F000
01F800
01F800
03FC00
039C00
039C00
078E00
070E00
070E00
0F0700
0E0700
0E0700
1C0380
1C0380
3FFFC0
3FFFC0
3FFFC0
7800E0
7000E0
7000E0
E00070
E00070
ENDCHAR
STARTCHAR 00C1
ENCODING 193
SWIDTH 606 0
DWIDTH 20 0
BBX 21 32 0 1
BITMAP
000C00
001C00
003800
006000
00C000
000000
000000
000000
000000
007000
00F800
00F800
01F800
01DC00
03DC00
038E00
038E00
078E00
070700
070700
0E0700
0E0380
1E0380
1C03C0
1FFFC0
3FFFC0
3FFFE0
3800E0
7800E0
700070
700070
E00078
ENDCHAR
STARTCHAR 00C2
ENCODING 194
SWIDTH 606 0
DWIDTH 20 0
BBX 21 32 0 0
BITMAP
004000
00E000
03F800
079C00
020800
000000
000000
000000
000000
007000
00F800
00F800
01F800
01DC00
03DC00
038E00
038E00
078E00
070700
070700
0E0700
0E0380
1E0380
1C03C0
1FFFC0
3FFFC0
3FFFE0
3800E0
7800E0
700070
700070
E00078
ENDCHAR
STARTCHAR 00C3
ENCODING 195
SWIDTH 606 0
DWIDTH 20 0
BBX 21 31 0 1
BITMAP
01E300
07FF00
07FF00
003E00
000000
000000
000000
000000
007000
00F800
00F800
01F800
01DC00
03DC00
038E00
038E00
078E00
070700
070700
0E0700
0E0380
1E0380
1C03C0
1FFFC0
3FFFC0
3FFFE0
3800E0
7800E0
700070
700070
E00078
ENDCHAR
STARTCHAR 00C4
ENCODING 196
SWIDTH 606 0
DWIDTH 20 0
BBX 21 31 0 0
BITMAP
070E00
070E00
070E00
000000
000000
000000
000000
000000
007000
00F800
00F800
01F800
01DC00
03DC00
038E00
038E00
078E00
070700
070700
0E0700
0E0380
1E0380
1C03C0
1FFFC0
3FFFC0
3FFFE0
3800E0
7800E0
700070
700070
E00078
ENDCHAR
STARTCHAR 00C5
ENCODING 197
SWIDTH 606 0
DWIDTH 20 0
BBX 21 32 0 0
BITMAP
00E000
011000
011000
011000
00E000
000000
000000
000000
000000
007000
00F800
00F800
01F800
01DC00
03DC00
038E00
038E00
078E00
070700
070700
0E0700
0E0380
1E0380
1C03C0
1FFFC0
3FFFC0
3FFFE0
3800E0
7800E0
700070
700070
E00078
ENDCHAR
STARTCHAR 00C6
ENCODING 198
SWIDTH 939 0
DWIDTH 31 0
BBX 30 23 0 0
BITMAP
000FFF80
0007FF80
000FFF80
000F0000
001F0000
001F0000
003F8000
007B8000
00738000
00F1FFE0
00E1FFE0
01C1FFE0
03C1E000
0380E000
07FFE000
0FFFE000
0FFFF000
1E007000
1C007000
38007800
78003FFC
70003FFC
F0003FFC
ENDCHAR
STARTCHAR 00C7
ENCODING 199
SWIDTH 727 0
DWIDTH 24 0
BBX 21 31 1 -7
BITMAP
00FE00
03FF80
0FFFE0
1F03F0
3E00F0
3C0078
780038
700000
700000
700000
F00000
E00000
E00000
E00000
700000
700038
700038
700038
380078
380070
1C00F0
1F03E0
0FFFC0
03FF00
007000
007800
00FC00
001C00
001C00
01FC00
01F800
ENDCHAR
STARTCHAR 00C8
ENCODING 200
SWIDTH 575 0
DWIDTH 19 0
BBX 15 33 2 0
BITMAP
0100
0780
03C0
01C0
0060
0020
0000
0000
0000
0000
1FFE
3FFE
7FFE
F000
E000
E000
E000
E000
E000
E000
FFFE
FFFE
FFFE
E000
E000
E000
E000
E000
E000
F000
7FFE
3FFE
1FFE
ENDCHAR
STARTCHAR 00C9
ENCODING 201
SWIDTH 606 0
DWIDTH 20 0
BBX 15 32 2 1
BITMAP
0018
0038
0070
00C0
0180
0000
0000
0000
0000
1FFE
3FFE
7FFE
F000
E000
E000
E000
E000
E000
E000
FFFE
FFFE
FFFE
E000
E000
E000
E000
E000
E000
F000
7FFE
3FFE
1FFE
ENDCHAR
STARTCHAR 00CA
ENCODING 202
SWIDTH 575 0
DWIDTH 19 0
BBX 15 32 2 0
BITMAP
0080
01C0
07F0
0F38
0410
0000
0000
0000
0000
1FFE
3FFE
7FFE
F000
E000
E000
E000
E000
E000
E000
FFFE
FFFE
FFFE
E000
E000
E000
E000
E000
E000
F000
7FFE
3FFE
1FFE
ENDCHAR
STARTCHAR 00CB
ENCODING 203
SWIDTH 606 0
DWIDTH 20 0
BBX 15 31 2 0
BITMAP
0E1C
0E1C
0E1C
0000
0000
0000
0000
0000
1FFE
3FFE
7FFE
F000
E000
E000
E000
E000
E000
E000
FFFE
FFFE
FFFE
E000
E000
E000
E000
E000
E000
F000
7FFE
3FFE
1FFE
ENDCHAR
STARTCHAR 00CC
ENCODING 204
SWIDTH 303 0
DWIDTH 10 0
BBX 7 33 1 0
BITMAP
20
F0
78
38
0C
04
00
00
00
00
0E
0E
0E
0E
0E
0E
0E
0E
0E
0E
0E
0E
0E
0E
0E
0E
0E
0E
0E
0E
0E
0E
0E
ENDCHAR
STARTCHAR 00CD
ENCODING 205
SWIDTH 272 0
DWIDTH 9 0
BBX 6 32 2 1
BITMAP
0C
1C
38
60
C0
00
00
00
00
E0
E0
E0
E0
E0
E0
E0
E0
E0
E0
E0
E0
E0
E0
E0
E0
E0
E0
E0
E0
E0
E0
E0
ENDCHAR
STARTCHAR 00CE
ENCODING 206
SWIDTH 272 0
DWIDTH 9 0
BBX 9 33 -1 0
BITMAP
0800
1C00
7F00
F380
4100
0000
0000
0000
0000
0000
0E00
0E00
0E00
0E00
0E00
0E00
0E00
0E00
0E00
0E00
0E00
0E00
0E00
0E00
0E00
0E00
0E00
0E00
0E00
0E00
0E00
0E00
0E00
ENDCHAR
STARTCHAR 00CF
ENCODING 207
SWIDTH 272 0
DWIDTH 9 0
BBX 10 31 -1 0
BITMAP
E1C0
E1C0
E1C0
0000
0000
0000
0000
0000
1C00
1C00
1C00
1C00
1C00
1C00
1C00
1C00
1C00
1C00
1C00
1C00
1C00
1C00
1C00
1C00
1C00
1C00
1C00
1C00
1C00
1C00
1C00
ENDCHAR
STARTCHAR 00D0
ENCODING 208
SWIDTH 757 0
DWIDTH 25 0
BBX 22 24 1 0
BITMAP
1FFE00
1FFFC0
1FFFE0
1C01F0
1C00F0
1C0078
1C0038
1C0038
1C001C
1C001C
FFF01C
FFF01C
FFF01C
1C001C
1C001C
1C001C
1C0038
1C0038
1C0078
1C00F0
1C01E0
1FFFE0
1FFFC0
1FFF00
ENDCHAR
STARTCHAR 00D1
ENCODING 209
SWIDTH 606 0
DWIDTH 20 0
BBX 16 31 2 0
BITMAP
0F18
3FF8
3FF8
01F0
0000
0000
0000
0000
7007
F807
F807
FC07
FC07
EE07
EE07
EF07
E707
E787
E387
E387
E1C7
E1C7
E0E7
E0E7
E0F7
E077
E077
E03F
E03F
E01F
E00E
ENDCHAR
STARTCHAR 00D2
ENCODING 210
SWIDTH 636 0
DWIDTH 21 0
BBX 17 33 2 0
BITMAP
010000
078000
03C000
00E000
007000
002000
000000
000000
000000
000000
0FF800
3FFE00
7FFF00
F00780
E00380
E00380
E00380
E00380
E00380
E00380
E00380
E00380
E00380
E00380
E00380
E00380
E00380
E00380
E00380
700780
7FFF00
3FFE00
0FF800
ENDCHAR
STARTCHAR 00D3
ENCODING 211
SWIDTH 636 0
DWIDTH 21 0
BBX 17 29 2 1
BITMAP
000C00
001C00
003800
006000
00C000
000000
0FF800
3FFE00
7FFF00
F00780
E00380
E00380
E00380
E00380
E00380
E00380
E00380
E00380
E00380
E00380
E00380
E00380
E00380
E00380
E00380
700780
7FFF00
3FFE00
0FF800
ENDCHAR
STARTCHAR 00D4
ENCODING 212
SWIDTH 636 0
DWIDTH 21 0
BBX 17 32 2 0
BITMAP
008000
01C000
07F000
0F3800
041000
000000
000000
000000
000000
0FF800
3FFE00
7FFF00
F00780
E00380
E00380
E00380
E00380
E00380
E00380
E00380
E00380
E00380
E00380
E00380
E00380
E00380
E00380
E00380
700780
7FFF00
3FFE00
0FF800
ENDCHAR
STARTCHAR 00D5
ENCODING 213
SWIDTH 636 0
DWIDTH 21 0
BBX 17 31 2 1
BITMAP
078C00
1FFC00
1FFC00
00F800
000000
000000
000000
000000
0FF800
3FFE00
7FFF00
F00780
E00380
E00380
E00380
E00380
E00380
E00380
E00380
E00380
E00380
E00380
E00380
E00380
E00380
E00380
E00380
700780
7FFF00
3FFE00
0FF800
ENDCHAR
STARTCHAR 00D6
ENCODING 214
SWIDTH 636 0
DWIDTH 21 0
BBX 17 31 2 0
BITMAP
1C3800
1C3800
1C3800
000000
000000
000000
000000
000000
0FF800
3FFE00
7FFF00
F00780
E00380
E00380
E00380
E00380
E00380
E00380
E00380
E00380
E00380
E00380
E00380
E00380
E00380
E00380
E00380
700780
7FFF00
3FFE00
0FF800
ENDCHAR
STARTCHAR 00D7
ENCODING 215
SWIDTH 575 0
DWIDTH 19 0
BBX 16 16 2 1
BITMAP
C003
6006
300C
1818
0C30
0660
03C0
0180
03C0
06E0
0C70
1838
301C
600E
C007
8002
ENDCHAR
STARTCHAR 00D8
ENCODING 216
SWIDTH 787 0
DWIDTH 26 0
BBX 23 25 1 0
BITMAP
00FF06
03FFCE
0FFFFC
1F81F8
3E0078
3C00FC
7800DC
70019E
70030E
70060E
E00E0E
E01C0E
E0180E
E0300E
E0600E
70C00E
71800E
7B001C
3E001C
3C003C
1E0078
3F81F0
77FFE0
E3FFC0
40FE00
ENDCHAR
STARTCHAR 00D9
ENCODING 217
SWIDTH 636 0
DWIDTH 21 0
BBX 16 33 2 0
BITMAP
0200
0F00
0780
01C0
00E0
0040
0000
0000
0000
0000
E007
E007
E007
E007
E007
E007
E007
E007
E007
E007
E007
E007
E007
E007
E007
E007
E007
E007
E007
F00F
7FFE
3FFC
1FF8
ENDCHAR
STARTCHAR 00DA
ENCODING 218
SWIDTH 636 0
DWIDTH 21 0
BBX 16 28 2 1
BITMAP
0018
0038
0070
00C0
0180
E007
E007
E007
E007
E007
E007
E007
E007
E007
E007
E007
E007
E007
E007
E007
E007
E007
E007
E007
F00F
7FFE
3FFC
1FF8
ENDCHAR
STARTCHAR 00DB
ENCODING 219
SWIDTH 606 0
DWIDTH 20 0
BBX 16 32 2 0
BITMAP
0100
0380
0FE0
1E70
0820
0000
0000
0000
0000
E007
E007
E007
E007
E007
E007
E007
E007
E007
E007
E007
E007
E007
E007
E007
E007
E007
E007
E007
F00F
7FFE
3FFC
1FF8
ENDCHAR
STARTCHAR 00DC
ENCODING 220
SWIDTH 636 0
DWIDTH 21 0
BBX 16 31 2 0
BITMAP
1C38
1C38
1C38
0000
0000
0000
0000
0000
E007
E007
E007
E007
E007
E007
E007
E007
E007
E007
E007
E007
E007
E007
E007
E007
E007
E007
E007
F00F
7FFE
3FFC
1FF8
ENDCHAR
STARTCHAR 00DD
ENCODING 221
SWIDTH 575 0
DWIDTH 19 0
BBX 20 32 0 1
BITMAP
000C00
001C00
003800
006000
00C000
000000
000000
000000
000000
F000F0
7001E0
3801C0
3C03C0
1C0780
1E0700
0E0F00
071E00
07BC00
03B800
03F800
01F000
00E000
00E000
00E000
00E000
00E000
00E000
00E000
00E000
00E000
00E000
00E000
ENDCHAR
STARTCHAR 00DE
ENCODING 222
SWIDTH 666 0
DWIDTH 22 0
BBX 18 24 3 0
BITMAP
E00000
E00000
E00000
E00000
FFFC00
FFFE00
FFFF00
E00780
E00380
E001C0
E001C0
E001C0
E001C0
E00380
E00780
FFFF00
FFFE00
FFFC00
E00000
E00000
E00000
E00000
E00000
E00000
ENDCHAR
STARTCHAR 00DF
ENCODING 223
SWIDTH 575 0
DWIDTH 19 0
BBX 17 28 1 -2
BITMAP
07C000
1FF000
3FF800
7C3C00
781C00
700E00
700E00
700E00
701E00
701C00
707C00
71F800
F1F800
F1FC00
F03E00
700F00
700700
700780
700380
700380
700380
700700
700700
700F00
703E00
71FC00
71F800
01E000
ENDCHAR
STARTCHAR 00E0
ENCODING 224
SWIDTH 545 0
DWIDTH 18 0
BBX 14 25 2 0
BITMAP
0C00
1E00
0F00
0300
0180
0000
0000
0000
FFF0
FFF8
FFFC
001C
001C
3FFC
7FFC
FFFC
F03C
E01C
E01C
E01C
E01C
E01C
FFFC
7FF8
3FF0
ENDCHAR
STARTCHAR 00E1
ENCODING 225
SWIDTH 545 0
DWIDTH 18 0
BBX 14 25 2 1
BITMAP
0060
00E0
01C0
0300
0600
0000
0000
0000
FFF0
FFF8
FFFC
001C
001C
3FFC
7FFC
FFFC
F03C
E01C
E01C
E01C
E01C
E01C
FFFC
7FF8
3FF0
ENDCHAR
STARTCHAR 00E2
ENCODING 226
SWIDTH 545 0
DWIDTH 18 0
BBX 14 25 2 0
BITMAP
0200
0700
1FC0
3CE0
1040
0000
0000
0000
FFF0
FFF8
FFFC
001C
001C
3FFC
7FFC
FFFC
F03C
E01C
E01C
E01C
E01C
E01C
FFFC
7FF8
3FF0
ENDCHAR
STARTCHAR 00E3
ENCODING 227
SWIDTH 545 0
DWIDTH 18 0
BBX 14 24 2 1
BITMAP
1E30
7FF0
7FF0
03E0
0000
0000
0000
FFF0
FFF8
FFFC
001C
001C
3FFC
7FFC
FFFC
F03C
E01C
E01C
E01C
E01C
E01C
FFFC
7FF8
3FF0
ENDCHAR
STARTCHAR 00E4
ENCODING 228
SWIDTH 545 0
DWIDTH 18 0
BBX 14 23 2 0
BITMAP
3870
3870
3870
0000
0000
0000
FFF0
FFF8
FFFC
001C
001C
3FFC
7FFC
FFFC
F03C
E01C
E01C
E01C
E01C
E01C
FFFC
7FF8
3FF0
ENDCHAR
STARTCHAR 00E5
ENCODING 229
SWIDTH 545 0
DWIDTH 18 0
BBX 14 25 2 0
BITMAP
0700
0880
0880
0880
0700
0000
0000
0000
FFF0
FFF8
FFFC
001C
001C
3FFC
7FFC
FFFC
F03C
E01C
E01C
E01C
E01C
E01C
FFFC
7FF8
3FF0
ENDCHAR
STARTCHAR 00E6
ENCODING 230
SWIDTH 878 0
DWIDTH 29 0
BBX 27 19 1 -1
BITMAP
07E07C00
1FF9FF00
3FFFFF80
783F8380
701F01C0
701E01C0
001C00E0
001C00E0
07FFFFE0
3FFFFFE0
7C1FFFE0
701C0000
E01C0000
E01E01E0
E03E01C0
F0F787C0
7FE3FF80
3FC1FF00
1F80FC00
ENDCHAR
STARTCHAR 00E7
ENCODING 231
SWIDTH 515 0
DWIDTH 17 0
BBX 15 25 1 -7
BITMAP
07E0
1FF8
3FF8
7C3C
701C
F00E
E00E
E000
E000
E000
E000
E000
E00E
701C
701C
383C
1FF8
0FF0
0700
0F80
0FC0
01C0
01C0
0F80
1F00
ENDCHAR
STARTCHAR 00E8
ENCODING 232
SWIDTH 545 0
DWIDTH 18 0
BBX 14 25 2 0
BITMAP
0C00
1E00
0F00
0300
0180
0000
0000
0000
1FF0
7FF8
FFFC
E01C
E01C
E07C
E3FC
EFF0
FF80
FE00
F800
E000
E000
E000
FFFC
7FFC
3FFC
ENDCHAR
STARTCHAR 00E9
ENCODING 233
SWIDTH 545 0
DWIDTH 18 0
BBX 14 25 2 1
BITMAP
0060
00E0
01C0
0300
0600
0000
0000
0000
1FF0
7FF8
FFFC
F01C
E01C
E07C
E1FC
E7F0
FFC0
FE00
F800
E000
E000
E000
FFFC
7FFC
3FFC
ENDCHAR
STARTCHAR 00EA
ENCODING 234
SWIDTH 545 0
DWIDTH 18 0
BBX 14 25 2 0
BITMAP
0200
0700
1FC0
3CE0
1040
0000
0000
0000
1FF0
7FF8
FFFC
F01C
E01C
E07C
E1FC
E7F0
FFC0
FE00
F800
E000
E000
E000
FFFC
7FFC
3FFC
ENDCHAR
STARTCHAR 00EB
ENCODING 235
SWIDTH 545 0
DWIDTH 18 0
BBX 14 23 2 0
BITMAP
3870
3870
3870
0000
0000
0000
1FF0
7FF8
FFFC
F01C
E01C
E07C
E1FC
E7F0
FFC0
FE00
F800
E000
E000
E000
FFFC
7FFC
3FFC
ENDCHAR
STARTCHAR 00EC
ENCODING 236
SWIDTH 303 0
DWIDTH 10 0
BBX 6 26 1 0
BITMAP
20
F0
70
38
1C
04
00
00
00
00
00
00
1C
1C
1C
1C
1C
1C
1C
1C
1C
1C
1C
1C
1C
1C
ENDCHAR
STARTCHAR 00ED
ENCODING 237
SWIDTH 272 0
DWIDTH 9 0
BBX 7 25 2 1
BITMAP
06
0E
1C
30
60
00
00
00
00
00
00
E0
E0
E0
E0
E0
E0
E0
E0
E0
E0
E0
E0
E0
E0
ENDCHAR
STARTCHAR 00EE
ENCODING 238
SWIDTH 272 0
DWIDTH 9 0
BBX 9 25 -1 0
BITMAP
0800
1C00
7F00
F380
4100
0000
0000
0000
0000
0000
0000
0E00
0E00
0E00
0E00
0E00
0E00
0E00
0E00
0E00
0E00
0E00
0E00
0E00
0E00
ENDCHAR
STARTCHAR 00EF
ENCODING 239
SWIDTH 272 0
DWIDTH 9 0
BBX 10 23 -1 0
BITMAP
E1C0
E1C0
E1C0
0000
0000
0000
0000
0000
0000
0E00
0E00
0E00
0E00
0E00
0E00
0E00
0E00
0E00
0E00
0E00
0E00
0E00
0E00
ENDCHAR
STARTCHAR 00F0
ENCODING 240
SWIDTH 545 0
DWIDTH 18 0
BBX 16 25 1 -1
BITMAP
070C
07BC
01F0
07F0
1C78
0038
001C
07CC
1FFE
3FFE
3C3F
780F
700F
F007
E007
E007
E007
E007
E007
700E
780E
3C3E
3FFC
1FF8
07E0
ENDCHAR
STARTCHAR 00F1
ENCODING 241
SWIDTH 545 0
DWIDTH 18 0
BBX 14 24 2 1
BITMAP
0F18
3FF8
3FF8
01F0
0000
0000
0000
3FF0
7FF8
FFFC
E01C
E01C
E01C
E01C
E01C
E01C
E01C
E01C
E01C
E01C
E01C
E01C
E01C
E01C
ENDCHAR
STARTCHAR 00F2
ENCODING 242
SWIDTH 545 0
DWIDTH 18 0
BBX 15 25 2 0
BITMAP
0C00
1E00
0F00
0300
0180
0000
0000
0000
3FF8
7FFC
FFFE
F01E
E00E
E00E
E00E
E00E
E00E
E00E
E00E
E00E
E00E
F01E
FFFE
7FFC
3FF8
ENDCHAR
STARTCHAR 00F3
ENCODING 243
SWIDTH 545 0
DWIDTH 18 0
BBX 15 25 2 1
BITMAP
0060
00E0
01C0
0300
0600
0000
0000
0000
3FF8
7FFC
FFFE
F01E
E00E
E00E
E00E
E00E
E00E
E00E
E00E
E00E
E00E
F01E
FFFE
7FFC
3FF8
ENDCHAR
STARTCHAR 00F4
ENCODING 244
SWIDTH 545 0
DWIDTH 18 0
BBX 15 25 2 0
BITMAP
0200
0700
1FC0
3CE0
1040
0000
0000
0000
3FF8
7FFC
FFFE
F01E
E00E
E00E
E00E
E00E
E00E
E00E
E00E
E00E
E00E
F01E
FFFE
7FFC
3FF8
ENDCHAR
STARTCHAR 00F5
ENCODING 245
SWIDTH 545 0
DWIDTH 18 0
BBX 15 24 2 1
BITMAP
0F18
3FF8
3FF8
01F0
0000
0000
0000
3FF8
7FFC
FFFE
F01E
E00E
E00E
E00E
E00E
E00E
E00E
E00E
E00E
E00E
F01E
FFFE
7FFC
3FF8
ENDCHAR
STARTCHAR 00F6
ENCODING 246
SWIDTH 545 0
DWIDTH 18 0
BBX 15 23 2 0
BITMAP
3870
3870
3870
0000
0000
0000
3FF8
7FFC
FFFE
F01E
E00E
E00E
E00E
E00E
E00E
E00E
E00E
E00E
E00E
F01E
FFFE
7FFC
3FF8
ENDCHAR
STARTCHAR 00F7
ENCODING 247
SWIDTH 636 0
DWIDTH 21 0
BBX 17 15 2 4
BITMAP
01C000
01C000
01C000
000000
000000
000000
FFFF80
FFFF80
FFFF80
000000
000000
000000
01C000
01C000
01C000
ENDCHAR
STARTCHAR 00F8
ENCODING 248
SWIDTH 606 0
DWIDTH 20 0
BBX 17 19 1 -1
BITMAP
07E100
1FFB80
3FFF00
7C3E00
701E00
F03E00
E07700
E0E700
E1C700
E38700
E30700
E60700
EE0E00
7C0E00
783E00
7FFC00
FFF800
C7E000
800000
ENDCHAR
STARTCHAR 00F9
ENCODING 249
SWIDTH 545 0
DWIDTH 18 0
BBX 14 25 2 0
BITMAP
0C00
1E00
0F00
0300
0180
0000
0000
0000
E01C
E01C
E01C
E01C
E01C
E01C
E01C
E01C
E01C
E01C
E01C
E01C
E01C
E01C
FFFC
7FF8
3FF0
ENDCHAR
STARTCHAR 00FA
ENCODING 250
SWIDTH 545 0
DWIDTH 18 0
BBX 14 25 2 1
BITMAP
0060
00E0
01C0
0300
0600
0000
0000
0000
E01C
E01C
E01C
E01C
E01C
E01C
E01C
E01C
E01C
E01C
E01C
E01C
E01C
E01C
FFFC
7FF8
3FF0
ENDCHAR
STARTCHAR 00FB
ENCODING 251
SWIDTH 545 0
DWIDTH 18 0
BBX 14 25 2 0
BITMAP
0200
0700
1FC0
3CE0
1040
0000
0000
0000
E01C
E01C
E01C
E01C
E01C
E01C
E01C
E01C
E01C
E01C
E01C
E01C
E01C
E01C
FFFC
7FF8
3FF0
ENDCHAR
STARTCHAR 00FC
ENCODING 252
SWIDTH 545 0
DWIDTH 18 0
BBX 14 23 2 0
BITMAP
3870
3870
3870
0000
0000
0000
E01C
E01C
E01C
E01C
E01C
E01C
E01C
E01C
E01C
E01C
E01C
E01C
E01C
E01C
FFFC
7FF8
3FF0
ENDCHAR
STARTCHAR 00FD
ENCODING 253
SWIDTH 545 0
DWIDTH 18 0
BBX 14 31 2 -5
BITMAP
0030
0070
00E0
0180
0300
0000
0000
0000
E01C
E01C
E01C
E01C
E01C
E01C
E01C
E01C
E01C
E01C
E01C
E01C
E01C
E01C
FFFC
7FFC
3FFC
001C
001C
001C
FFFC
FFF8
FFF0
ENDCHAR
STARTCHAR 00FE
ENCODING 254
SWIDTH 545 0
DWIDTH 18 0
BBX 15 31 2 -7
BITMAP
E000
E000
E000
E000
E000
E000
E7C0
EFF0
FFF8
F87C
F01C
F01C
E00E
E00E
E00E
E00E
E00E
E00E
E01E
E01C
F03C
F878
FFF8
EFF0
E7C0
E000
E000
E000
E000
E000
E000
ENDCHAR
STARTCHAR 00FF
ENCODING 255
SWIDTH 575 0
DWIDTH 19 0
BBX 14 29 2 -6
BITMAP
1C38
1C38
1C38
0000
0000
0000
E01C
E01C
E01C
E01C
E01C
E01C
E01C
E01C
E01C
E01C
E01C
E01C
E01C
E01C
FFFC
7FFC
3FFC
001C
001C
001C
FFFC
FFF8
FFF0
ENDCHAR
STARTCHAR 0131
ENCODING 305
SWIDTH 212 0
DWIDTH 7 0
BBX 3 14 2 0
BITMAP
E0
E0
E0
E0
E0
E0
E0
E0
E0
E0
E0
E0
E0
E0
ENDCHAR
STARTCHAR 0141
ENCODING 321
SWIDTH 545 0
DWIDTH 18 0
BBX 19 24 -1 0
BITMAP
1C0000
1C0000
1C0000
1C0000
1C0000
1C0000
1C0000
1C4000
1DC000
1FC000
1F0000
3C0000
FC0000
FC0000
9C0000
1C0000
1C0000
1C0000
1C0000
1C0000
1C0000
1FFFE0
1FFFE0
1FFFE0
ENDCHAR
STARTCHAR 0142
ENCODING 322
SWIDTH 212 0
DWIDTH 7 0
BBX 9 24 -1 0
BITMAP
1C00
1C00
1C00
1C00
1C00
1C00
1C00
1C00
1C80
1F80
1F00
3E00
FC00
FC00
9C00
1C00
1C00
1C00
1C00
1C00
1C00
1C00
1C00
1C00
ENDCHAR
STARTCHAR 0152
ENCODING 338
SWIDTH 1000 0
DWIDTH 33 0
BBX 31 25 1 -1
BITMAP
01F8FFFE
07FEFFFE
0FFFFFFE
1F07E000
3C01E000
3800E000
7000E000
7000E000
7000E000
E000E000
E000FFFC
E000FFFC
E000FFFC
E000E000
E000E000
E000E000
7000E000
7000E000
7000E000
7801E000
3C01E000
1E07FFFE
0FFEFFFE
07FEFFFE
01F80000
ENDCHAR
STARTCHAR 0153
ENCODING 339
SWIDTH 939 0
DWIDTH 31 0
BBX 29 19 1 -1
BITMAP
07E03F00
0FF87FC0
3FFCFFE0
3C3DE1E0
780FC070
700F8070
F0070030
E0070038
E007FFF8
E007FFF8
E007FFF8
E0070000
F0070000
700F8070
780F8070
3C3DC1E0
3FFDFFE0
0FF8FFC0
07E03F00
ENDCHAR
STARTCHAR 0160
ENCODING 352
SWIDTH 545 0
DWIDTH 18 0
BBX 15 32 1 1
BITMAP
0418
1F3C
0FFC
03F0
00C0
0000
0000
0000
0000
1FFE
7FFE
7FFE
F000
E000
E000
E000
E000
E000
F000
7FF0
7FFC
1FFC
001E
000E
000E
000E
000E
000E
001E
FFFC
FFFC
FFF0
ENDCHAR
STARTCHAR 0161
ENCODING 353
SWIDTH 484 0
DWIDTH 16 0
BBX 13 25 1 1
BITMAP
0830
3E78
1FF8
07E0
0180
0000
0000
0000
3FF8
7FF8
FFF8
E000
E000
E000
FFE0
7FF0
3FF8
0038
0038
0038
0038
0038
FFF8
FFF0
FFE0
ENDCHAR
STARTCHAR 0178
ENCODING 376
SWIDTH 575 0
DWIDTH 19 0
BBX 20 31 0 0
BITMAP
070E00
070E00
070E00
000000
000000
000000
000000
000000
F000F0
7001E0
3801C0
3C03C0
1C0780
1E0700
0E0F00
071E00
07BC00
03B800
03F800
01F000
00E000
00E000
00E000
00E000
00E000
00E000
00E000
00E000
00E000
00E000
00E000
ENDCHAR
STARTCHAR 017D
ENCODING 381
SWIDTH 545 0
DWIDTH 18 0
BBX 15 32 1 1
BITMAP
0418
1F3C
0FFC
03F0
00C0
0000
0000
0000
0000
FFFC
FFFE
FFFE
001E
003C
0038
0078
00F0
01E0
01C0
03C0
0780
0700
0F00
1E00
1C00
3C00
7800
F000
E000
FFFE
FFFE
7FFE
ENDCHAR
STARTCHAR 017E
ENCODING 382
SWIDTH 515 0
DWIDTH 17 0
BBX 15 25 1 1
BITMAP
0418
1F3C
0FFC
03F0
00C0
0000
0000
0000
FFFE
FFFE
FFFE
003E
007C
00F8
01F0
03E0
07C0
0F80
1E00
3C00
7800
F000
FFFE
FFFE
7FFE
ENDCHAR
STARTCHAR 0192
ENCODING 402
SWIDTH 545 0
DWIDTH 18 0
BBX 17 31 0 -7
BITMAP
000F80
003F00
007F00
007800
007000
00E000
00E000
00E000
00E000
0FFE00
0FFE00
0FFE00
01C000
01C000
01C000
01C000
03C000
038000
038000
038000
038000
078000
070000
070000
070000
070000
0E0000
1E0000
FC0000
F80000
F00000
ENDCHAR
STARTCHAR 02C6
ENCODING 710
SWIDTH 424 0
DWIDTH 14 0
BBX 9 5 4 17
BITMAP
0800
3C00
7E00
E780
4100
ENDCHAR
STARTCHAR 02C7
ENCODING 711
SWIDTH 363 0
DWIDTH 12 0
BBX 12 5 0 17
BITMAP
30C0
F9F0
3FE0
1F80
0600
ENDCHAR
STARTCHAR 02C9
ENCODING 713
SWIDTH 454 0
DWIDTH 15 0
BBX 10 2 3 19
BITMAP
FFC0
FFC0
ENDCHAR
STARTCHAR 02D8
ENCODING 728
SWIDTH 484 0
DWIDTH 16 0
BBX 9 4 4 17
BITMAP
C180
FF80
7F00
3E00
ENDCHAR
STARTCHAR 02D9
ENCODING 729
SWIDTH 393 0
DWIDTH 13 0
BBX 3 3 6 18
BITMAP
60
E0
60
ENDCHAR
STARTCHAR 02DA
ENCODING 730
SWIDTH 454 0
DWIDTH 15 0
BBX 5 5 5 17
BITMAP
70
C8
88
C8
70
ENDCHAR
STARTCHAR 02DB
ENCODING 731
SWIDTH 212 0
DWIDTH 7 0
BBX 6 7 0 -7
BITMAP
30
70
60
E0
F0
7C
38
ENDCHAR
STARTCHAR 02DC
ENCODING 732
SWIDTH 515 0
DWIDTH 17 0
BBX 11 4 3 18
BITMAP
7C40
FFE0
FFC0
0780
ENDCHAR
STARTCHAR 02DD
ENCODING 733
SWIDTH 545 0
DWIDTH 18 0
BBX 11 5 4 18
BITMAP
10C0
39E0
73C0
E300
8600
ENDCHAR
STARTCHAR 0394
ENCODING 916
SWIDTH 636 0
DWIDTH 21 0
BBX 21 23 0 1
BITMAP
003000
003000
003800
007800
007800
00DC00
00DC00
01DE00
018E00
038E00
030700
070700
060780
060380
0C0380
0C01C0
1801C0
1801E0
3000E0
3000E0
700070
7FFFF0
FFFFF8
ENDCHAR
STARTCHAR 03A9
ENCODING 937
SWIDTH 787 0
DWIDTH 26 0
BBX 23 24 1 0
BITMAP
007F00
0381C0
060070
0C0038
18001C
38001C
38000E
70000E
70000E
70000E
70000E
70000E
70000E
38000E
38001C
18001C
1C0038
0E0070
8383E0
80C302
E0C30E
FFC7FE
FFC7FE
FFC7FE
ENDCHAR
STARTCHAR 03BC
ENCODING 956
SWIDTH 484 0
DWIDTH 16 0
BBX 12 22 2 -8
BITMAP
E070
E070
E070
E070
E070
E070
E070
E070
E070
E070
E0F0
F0F0
FFE0
FFC0
EF80
E000
E000
E000
E000
E000
E000
E000
ENDCHAR
STARTCHAR 03C0
ENCODING 960
SWIDTH 575 0
DWIDTH 19 0
BBX 17 18 1 -1
BITMAP
3FFF80
7FFF80
FFFF80
8E3800
8E3800
0C3800
0C3800
0C3000
0C7000
0C7000
0C7000
1C7000
1C7080
387880
383880
783F00
783F00
301E00
ENDCHAR
STARTCHAR 2010
ENCODING 8208
SWIDTH 333 0
DWIDTH 11 0
BBX 8 4 1 7
BITMAP
FF
FF
FF
F0
ENDCHAR
STARTCHAR 2013
ENCODING 8211
SWIDTH 636 0
DWIDTH 21 0
BBX 17 3 2 10
BITMAP
FFFF80
FFFF80
FFFF80
ENDCHAR
STARTCHAR 2014
ENCODING 8212
SWIDTH 515 0
DWIDTH 17 0
BBX 15 3 1 7
BITMAP
FFFE
FFFE
FFFE
ENDCHAR
STARTCHAR 2018
ENCODING 8216
SWIDTH 181 0
DWIDTH 6 0
BBX 4 7 1 16
BITMAP
30
60
60
E0
F0
F0
60
ENDCHAR
STARTCHAR 2019
ENCODING 8217
SWIDTH 181 0
DWIDTH 6 0
BBX 4 7 1 16
BITMAP
60
F0
F0
60
60
60
C0
ENDCHAR
STARTCHAR 201A
ENCODING 8218
SWIDTH 242 0
DWIDTH 8 0
BBX 3 8 2 -4
BITMAP
E0
E0
E0
60
60
60
60
C0
ENDCHAR
STARTCHAR 201C
ENCODING 8220
SWIDTH 333 0
DWIDTH 11 0
BBX 9 7 1 17
BITMAP
3300
6300
6600
E700
F780
F780
6300
ENDCHAR
STARTCHAR 201D
ENCODING 8221
SWIDTH 333 0
DWIDTH 11 0
BBX 9 7 1 16
BITMAP
6300
F780
F780
7700
6300
6600
E600
ENDCHAR
STARTCHAR 201E
ENCODING 8222
SWIDTH 393 0
DWIDTH 13 0
BBX 9 9 2 -4
BITMAP
E380
E380
E380
6180
6180
6180
6380
C700
0200
ENDCHAR
STARTCHAR 2020
ENCODING 8224
SWIDTH 545 0
DWIDTH 18 0
BBX 15 29 1 -5
BITMAP
0380
0380
0380
0380
0380
0380
0380
FFFE
FFFE
FFFE
0380
0380
0380
0380
0380
0380
0380
0380
0380
0380
0380
0380
0380
0380
0380
0380
0380
0380
0380
ENDCHAR
STARTCHAR 2021
ENCODING 8225
SWIDTH 545 0
DWIDTH 18 0
BBX 15 29 1 -5
BITMAP
0380
0380
0380
0380
0380
0380
0380
FFFE
FFFE
FFFE
0380
0380
0380
0380
0380
0380
0380
0380
0380
0380
FFFE
FFFE
FFFE
0380
0380
0380
0380
0380
0380
ENDCHAR
STARTCHAR 2022
ENCODING 8226
SWIDTH 363 0
DWIDTH 12 0
BBX 9 9 2 7
BITMAP
3C00
7E00
FF00
FF00
FF80
FF00
FF00
7E00
3C00
ENDCHAR
STARTCHAR 2026
ENCODING 8230
SWIDTH 696 0
DWIDTH 23 0
BBX 19 4 2 -1
BITMAP
40C0C0
E0E0E0
E0E0E0
C0C0C0
ENDCHAR
STARTCHAR 2030
ENCODING 8240
SWIDTH 1000 0
DWIDTH 33 0
BBX 33 24 0 -1
BITMAP
1F00C00000
3F81C00000
7FC1800000
71E3800000
E0E3000000
E0E6000000
E0E6000000
71EC000000
7FDC000000
3FD8000000
1F38000000
0030000000
0077C07C00
006FE1FE00
00DFF3FF00
00DC7B8780
01B83F0380
01B83F0380
03383F0380
071C7B8780
061FF3FF00
0E0FF1FE00
0C07C07C00
1C00000000
ENDCHAR
STARTCHAR 2039
ENCODING 8249
SWIDTH 333 0
DWIDTH 11 0
BBX 5 11 3 4
BITMAP
08
18
38
70
E0
C0
C0
F0
38
18
08
ENDCHAR
STARTCHAR 203A
ENCODING 8250
SWIDTH 333 0
DWIDTH 11 0
BBX 5 11 3 4
BITMAP
80
C0
E0
70
38
18
18
78
F0
C0
80
ENDCHAR
STARTCHAR 2044
ENCODING 8260
SWIDTH 151 0
DWIDTH 5 0
BBX 15 25 -5 -1
BITMAP
0004
0006
000C
000C
0018
0038
0030
0070
0060
00C0
00C0
0180
0380
0300
0700
0600
0C00
0C00
1800
1800
3000
7000
6000
C000
4000
ENDCHAR
STARTCHAR 2122
ENCODING 8482
SWIDTH 878 0
DWIDTH 29 0
BBX 28 15 0 8
BITMAP
FFFE00E0
FFFE00F0
FFFF01F0
0F0F01F0
0F0F81F0
0F0F83F0
0F0FC3F0
0F0FC7F0
0F0FC6F0
0F0F66F0
0F0F6CF0
0F0F3CF0
0F0F3CF0
0F0F18F0
0F0F18F0
ENDCHAR
STARTCHAR 2126
ENCODING 8486
SWIDTH 787 0
DWIDTH 26 0
BBX 23 24 1 0
BITMAP
007F00
0381C0
060070
0C0038
18001C
38001C
38000E
70000E
70000E
70000E
70000E
70000E
70000E
38000E
38001C
18001C
1C0038
0E0070
8383E0
80C302
E0C30E
FFC7FE
FFC7FE
FFC7FE
ENDCHAR
STARTCHAR 2202
ENCODING 8706
SWIDTH 515 0
DWIDTH 17 0
BBX 15 27 1 -1
BITMAP
1F00
7FC0
30F0
0030
0038
001C
001C
000C
000E
000E
000E
000E
0F8E
1C4E
383E
700E
701E
E01C
E01C
E01C
E01C
E038
E038
6070
7070
30E0
0F80
ENDCHAR
STARTCHAR 2206
ENCODING 8710
SWIDTH 636 0
DWIDTH 21 0
BBX 21 23 0 1
BITMAP
003000
003000
003800
007800
007800
00DC00
00DC00
01DE00
018E00
038E00
030700
070700
060780
060380
0C0380
0C01C0
1801C0
1801E0
3000E0
3000E0
700070
7FFFF0
FFFFF8
ENDCHAR
STARTCHAR 220F
ENCODING 8719
SWIDTH 848 0
DWIDTH 28 0
BBX 26 29 1 -3
BITMAP
FFFFFFC0
3FFFFF00
1C000E00
1C000E00
1C000E00
1C000E00
1C000E00
1C000E00
1C000E00
1C000E00
1C000E00
1C000E00
1C000E00
1C000E00
1C000E00
1C000E00
1C000E00
1C000E00
1C000E00
1C000E00
1C000E00
1C000E00
1C000E00
1C000E00
1C000E00
1C000E00
1C000E00
3E001F00
FF807FC0
ENDCHAR
STARTCHAR 2211
ENCODING 8721
SWIDTH 727 0
DWIDTH 24 0
BBX 23 30 1 -4
BITMAP
7FFFF0
7FFFF0
3C0030
1E0010
0E0010
0F0000
078000
03C000
01C000
01E000
00F000
007800
003800
003C00
001E00
001C00
003800
007000
00E000
00C000
018000
038000
070002
0E0006
1C0004
18000C
3FFFFC
7FFFFC
FFFFFC
000008
ENDCHAR
STARTCHAR 2212
ENCODING 8722
SWIDTH 575 0
DWIDTH 19 0
BBX 17 3 1 7
BITMAP
FFFF80
FFFF80
FFFF80
ENDCHAR
STARTCHAR 2219
ENCODING 8729
SWIDTH 242 0
DWIDTH 8 0
BBX 3 3 3 7
BITMAP
C0
E0
E0
ENDCHAR
STARTCHAR 221A
ENCODING 8730
SWIDTH 575 0
DWIDTH 19 0
BBX 18 32 0 0
BITMAP
0000C0
000180
000180
000180
000180
000180
000180
000300
000300
000300
000300
000300
000300
0C0700
3C0600
FE0600
670600
070600
038600
038600
01CC00
01CC00
00EC00
00EC00
007C00
007C00
003800
003800
001800
001800
000800
000800
ENDCHAR
STARTCHAR 221E
ENCODING 8734
SWIDTH 727 0
DWIDTH 24 0
BBX 23 10 1 4
BITMAP
1E00F0
7F83F8
E1C71C
C0EE0E
C07C06
C03806
C0EC06
61C70C
7F83F8
1E00F0
ENDCHAR
STARTCHAR 222B
ENCODING 8747
SWIDTH 272 0
DWIDTH 9 0
BBX 10 35 0 -4
BITMAP
0380
07C0
0DC0
0C00
0C00
1C00
1C00
1C00
1C00
1C00
1C00
1C00
1C00
1C00
1C00
1E00
1E00
1E00
1E00
1E00
1E00
1E00
1E00
1C00
1C00
1C00
1C00
1C00
1C00
1C00
1C00
1C00
F800
F800
7000
ENDCHAR
STARTCHAR 2248
ENCODING 8776
SWIDTH 575 0
DWIDTH 19 0
BBX 17 9 1 5
BITMAP
380180
7F0380
FFFF00
C0FE00
000000
3C0000
7F8380
E3FF00
803E00
ENDCHAR
STARTCHAR 2260
ENCODING 8800
SWIDTH 575 0
DWIDTH 19 0
BBX 18 20 1 -1
BITMAP
000C00
000C00
001C00
001800
003800
003000
FFFFC0
FFFFC0
00C000
00C000
018000
038000
FFFFC0
FFFFC0
060000
0E0000
0C0000
180000
180000
100000
ENDCHAR
STARTCHAR 2264
ENCODING 8804
SWIDTH 575 0
DWIDTH 19 0
BBX 17 22 1 0
BITMAP
000080
000380
000F00
003C00
01F000
07C000
1F0000
7C0000
F00000
E00000
7C0000
1F0000
07C000
01F000
003C00
000F00
000380
000080
000000
000000
FFFF80
FFFF80
ENDCHAR
STARTCHAR 2265
ENCODING 8805
SWIDTH 575 0
DWIDTH 19 0
BBX 17 22 1 0
BITMAP
800000
E00000
780000
1E0000
07C000
01F000
007C00
001F00
000780
000380
001F00
007C00
01F000
07C000
1F0000
780000
E00000
800000
000000
000000
FFFF80
FFFF80
ENDCHAR
STARTCHAR 22F2
ENCODING 8946
SWIDTH 575 0
DWIDTH 19 0
BBX 17 9 1 5
BITMAP
380180
7F0380
FFFF00
C0FE00
000000
3C0000
7F8380
E3FF00
803E00
ENDCHAR
STARTCHAR 25CA
ENCODING 9674
SWIDTH 515 0
DWIDTH 17 0
BBX 15 26 1 0
BITMAP
0380
0780
07C0
0EC0
0CE0
1C60
1870
3830
3038
7018
601C
E00C
C00E
C006
E00C
600C
7018
3038
3830
1870
1C60
0CE0
0EC0
07C0
0380
0380
ENDCHAR
STARTCHAR F000
ENCODING 61440
SWIDTH 818 0
DWIDTH 27 0
BBX 21 25 3 -1
BITMAP
000200
000E00
001E00
001C00
003C00
003800
0F87C0
3FFFE0
7FFFF0
7FFFE0
FFFFC0
FFFFC0
FFFFC0
FFFFC0
FFFFC0
FFFFC0
FFFFC0
7FFFF0
7FFFF8
7FFFF0
3FFFF0
3FFFE0
1FFFE0
0FFFC0
070780
ENDCHAR
STARTCHAR F001
ENCODING 61441
SWIDTH 545 0
DWIDTH 18 0
BBX 14 24 1 1
BITMAP
0F1C
1F1C
3F1C
3800
3800
3800
3800
FF1C
FF1C
FF1C
381C
381C
381C
381C
381C
381C
381C
381C
381C
381C
381C
381C
381C
381C
ENDCHAR
STARTCHAR F002
ENCODING 61442
SWIDTH 545 0
DWIDTH 18 0
BBX 14 24 1 1
BITMAP
0F1C
1F1C
3F1C
381C
381C
381C
381C
FF1C
FF1C
FF1C
381C
381C
381C
381C
381C
381C
381C
381C
381C
381C
381C
381C
381C
381C
ENDCHAR
ENDFONT
